<?xml version="1.0" encoding="utf-8"?>
<!-- Generator: Adobe Illustrator 23.0.3, SVG Export Plug-In . SVG Version: 6.00 Build 0)  -->
<svg version="1.1" id="logosvg.com" xmlns="http://www.w3.org/2000/svg" xmlns:xlink="http://www.w3.org/1999/xlink" x="0px"
	 y="0px" viewBox="0 0 400 300" style="enable-background:new 0 0 400 300;" xml:space="preserve">
<style type="text/css">
	.st0{fill:#FF0000;}
</style>
<path id="logo" class="st0" d="M256,140.7c0,2.4,3.5,3.4,8.3,5.2c8.7,3.1,19.4,7.4,19.4,20.1c0,12.1-9.9,20.7-27.4,20.7
	c-10.1,0-19.5-2.9-26.1-7.7l2.9-18.6c6.4,5.7,16.1,9.7,23.2,9.7c4.9,0,7.3-2,7.3-4c0-2.5-3.7-3.8-8.4-5.5
	c-7.8-2.6-19.3-6.4-19.3-18.9c0-11.9,9.6-21.2,27.2-21.2c8.9,0,16.6,2.5,22.2,5.5l-2.5,17.1c-4.6-2.6-12.1-5.9-19.4-6
	C258.4,137,256,138.7,256,140.7z M81.1,121.8l-9.6,63.1H53.7h-3l1.4-6.1c-5.2,6.1-11.5,7.9-18.9,7.9c-13.3,0-23.9-11.1-23.9-28.6
	c0-21.8,14.5-37.8,31.2-37.8c5.3,0,15.3,0.7,18.6,7.3l1.2-5.5h0v-0.2H81.1z M55.2,153.1c0-6.9-5.5-12.6-12.5-12.6
	c-7,0-12.6,5.6-12.6,12.6c0,7,5.4,12.6,12.6,12.6C49.6,165.7,55.3,160.2,55.2,153.1z M233.1,121.8l-9.6,63.1h-17.9h-3l1.4-6.1
	c-5.2,6.1-11.5,7.9-18.9,7.9c-13.3,0-23.9-11.1-23.9-28.6c0-21.8,14.5-37.8,31.2-37.8c5.3,0,15.3,0.7,18.6,7.3l1.2-5.5h2.1v-0.2
	H233.1z M207.3,153.1c0-6.9-5.5-12.6-12.5-12.6c-7,0-12.6,5.6-12.6,12.6c0,7,5.4,12.6,12.6,12.6
	C201.6,165.7,207.3,160.2,207.3,153.1z M390.7,121.8l-9.6,63.1h-17.9h-3l1.4-6.1c-5.2,6.1-11.5,7.9-18.9,7.9
	c-13.3,0-23.9-11.1-23.9-28.6c0-21.8,14.5-37.8,31.2-37.8c5.3,0,15.3,0.7,18.6,7.3l1.2-5.5h2.1v-0.2H390.7z M364.8,153.1
	c0-6.9-5.5-12.6-12.5-12.6c-7,0-12.6,5.6-12.6,12.6c0,7,5.4,12.6,12.6,12.6C359.2,165.7,364.7,160.2,364.8,153.1z M99,124.1
	c5.7,1.3,11.3-2.2,12.7-7.8c1.3-5.6-2.1-11.3-7.8-12.7c-5.6-1.3-11.3,2.1-12.7,7.8C89.8,117,93.3,122.7,99,124.1z M101.4,128.5
	c-4.5,0-8.5-2.1-11.2-5.2l-9.3,61.8h21l9.1-60C108.3,127.1,105,128.5,101.4,128.5z M150.5,121.8c-5.8,0-10.5,4.7-10.5,10.5
	s4.7,10.5,10.5,10.5s10.5-4.7,10.5-10.5S156.3,121.8,150.5,121.8z M140.1,121.9h-19.9l-9.6,63.1h21l6.7-44.4
	c-1.6-2.3-2.6-5.2-2.6-8.3C135.8,128.3,137.4,124.5,140.1,121.9z M307.8,103.3c-5.8,0-10.5,4.7-10.5,10.5s4.7,10.5,10.5,10.5
	c5.8,0,10.5-4.7,10.5-10.5S313.6,103.3,307.8,103.3z M296.2,122.9l-9.3,62.1h21l9.1-59.8c-2.6,2-5.8,3.3-9.3,3.3
	C303.2,128.5,299,126.3,296.2,122.9z"/>
</svg>
