<?xml version="1.0" encoding="utf-8"?>
<!-- Generator: Adobe Illustrator 23.0.3, SVG Export Plug-In . SVG Version: 6.00 Build 0)  -->
<svg version="1.1"
	 id="logosvg.com" inkscape:version="0.92.0 r15299" sodipodi:docname="total.svg" xmlns:cc="http://creativecommons.org/ns#" xmlns:dc="http://purl.org/dc/elements/1.1/" xmlns:inkscape="http://www.inkscape.org/namespaces/inkscape" xmlns:rdf="http://www.w3.org/1999/02/22-rdf-syntax-ns#" xmlns:sodipodi="http://sodipodi.sourceforge.net/DTD/sodipodi-0.dtd" xmlns:svg="http://www.w3.org/2000/svg"
	 xmlns="http://www.w3.org/2000/svg" xmlns:xlink="http://www.w3.org/1999/xlink" x="0px" y="0px" viewBox="0 0 400 300"
	 style="enable-background:new 0 0 400 300;" xml:space="preserve">
<style type="text/css">
	.st0{fill:#ED1A3A;}
	.st1{fill:#F8981D;}
	.st2{fill:#034EA2;}
	.st3{fill:#4395D1;}
</style>
<path id="text" class="st0" d="M200.1,137.3c-18.1,0-28.4,7.8-28.4,21.3c0,13.4,10.4,21.2,28.4,21.2c18.1,0,28.4-7.8,28.4-21.2
	C228.5,145.1,218.2,137.3,200.1,137.3z M200.1,170c-9.9,0-14.9-3.8-14.9-11.3c0-7.6,5-11.4,14.9-11.4c9.9,0,14.9,3.8,14.9,11.4
	C215,166.2,210,170,200.1,170z M281.5,147.4h-17.1v28.1c0,2.7-4.1,3.6-7.6,3.6c-3.5,0-7.6-1-7.6-3.6v-28.1h-17.1v-9.1h49.3
	L281.5,147.4z M393.4,169.4v9.5h-12.7c-10.1,0.1-20.7,0.2-26.4-3.1c-4.7-2.8-7-8-7-15.3v-19.2c0-2.6,3.9-3.5,7.3-3.5
	c3.3,0,7.2,0.9,7.2,3.5v19.8c0.1,2,0.3,4.5,2.3,6.3c1.6,1.3,4.4,2,8.6,2L393.4,169.4z M177.9,136.1H155v43.2
	c-10.2-0.8-16.3-5.7-16.3-12.9v-30.3h-20.6v-10h59.8V136.1z M314.9,138.9L314.9,138.9c-1.3-0.9-2.6-1.1-4.4-1.1
	c-1.8,0.1-3.2,0.3-4.4,1.1c-3.9,2.8-22.8,21.8-26.1,38.4l-0.4,1.6h13.4l0.2-1.2c0.6-2.3,1.4-4.9,2.6-7.5h29.4
	c1.2,2.6,2.1,5.2,2.5,7.5l0.3,1.2h13.4l-0.4-1.6C337.6,160.6,318.8,141.7,314.9,138.9z M300.5,161.6c2.8-4.3,6.2-8.4,10-12.1
	c3.7,3.7,7.1,7.9,9.9,12.1H300.5z"/>
<path id="orange_1_" inkscape:connector-curvature="0" class="st1" d="M95.4,155.6c-0.1-0.2-0.1-0.4-0.2-0.6
	c-6.9,7.9-24,13-39.3,11.9c-9-0.7-25.7-5.3-34.2-10.5c8.9,8.5,19.3,15,31.2,18.5c14,4.2,29,3.9,37.4-0.5
	C96.4,170.2,97.9,162.8,95.4,155.6"/>
<path id="blue_1_" inkscape:connector-curvature="0" class="st2" d="M76.1,105.8c27.6,16.3,11.2,67.6-10.8,84.1
	c-20.5,15.3-42.2,8.3-46.9-5.9c4.1,6.1,12.3,8.4,19.6,5.9c20.2-8.1,30.6-44.7,31.9-57.4c0.9-10.9-0.5-18.3-4.3-22.9
	c-4.4-4.6-11-6.8-20.8-3.8C51.5,100.4,65.8,99.7,76.1,105.8"/>
<path id="red" inkscape:connector-curvature="0" class="st0" d="M91.5,173.7l0.3-0.2l0.1,0c0.6-0.4,1.1-0.8,1.7-1.3
	c0.2-0.2,0.5-0.5,0.7-0.7c10.7-10.9,13-41.2-13.5-55.6c-9.4-5.1-31.3-12.3-53.2-1.2c-7.2,3.6-14.7,11.2-18.7,21.5
	c3-4.9,8.1-8.2,18.2-9.6c10.1-1.3,24,0.3,37.6,5.1c8.8,3.2,15.9,7.2,21.4,11.7c4.6,3.9,7.5,7.7,9,11.6c0.1,0.2,0.2,0.4,0.2,0.6
	c2.5,7.2,1.1,14.6-5.1,18.8c0.3-0.2,0.6-0.3,0.9-0.5l0.1-0.1L91.5,173.7"/>
<path id="orange" inkscape:connector-curvature="0" class="st1" d="M12.4,153.6c0.5,0.8,1.7,2.2,2.4,3c5.3-12.5,34.4-20.6,43-20.5
	c-19.3-6.2-38.2-3.2-45.8,3.3C9.2,142.6,8.4,147.2,12.4,153.6"/>
<path id="blue" inkscape:connector-curvature="0" class="st3" d="M69.1,181.9c-15.5-0.9-38-6.8-54-24.9l-0.3-0.3
	c-0.7-0.9-1.9-2.2-2.4-3c-4-6.4-3.1-11-0.4-14.1h0c-0.5,0.4-1.1,1-1.8,1.9c-4.1,5.3-4.6,13.9-1.8,23c6.1,19.7,32.7,31.6,54.3,28.4
	c13.8-2.1,22.5-9.9,26.1-13C80.9,181.9,75.2,182.2,69.1,181.9"/>
</svg>
